# xmcd
# 
# Track frame offsets:
#     183
#     14743
#     27230
#     42023
#     59273
#     72465
#     85190
#     105430
# 
# Disc length: 1575
# 
# Revision: 0
# Processed by: cddbd v1.5.2PL0 Copyright (c) Steve Scherf et al.
# Submitted via: fre:ac v1.0.17
# 
DISCID=62062508
DTITLE=Arthur Prysock - Blues Country
DYEAR=1994
DGENRE=Blues
TTITLE0=Today I Started Loving You Again
TTITLE1=Crying Time
TTITLE2=Release Me
TTITLE3=He'll Have To Go
TTITLE4=Then You Can Tell Me Goodbye
TTITLE5=Green, Green Grass Of Home
TTITLE6=You Gave Me A Mountain
TTITLE7=By The Time I Get To Phoenix
EXTD=
EXTT0=
EXTT1=
EXTT2=
EXTT3=
EXTT4=
EXTT5=
EXTT6=
EXTT7=
PLAYORDER=
